<svg width="220" height="98" viewBox="0 0 220 98" fill="none" xmlns="http://www.w3.org/2000/svg">
<rect x="0.5" y="0.5" width="219" height="97" rx="4.5" stroke="#D0D0D0"/>
<g clip-path="url(#clip0_1059_3332)">
<path d="M97.1257 49.1188L97.126 49.1172L96.0312 53.0077L97.1257 49.1188Z" fill="#131B28"/>
<path d="M102.445 63.375H102.447L95.2188 63.4014L102.445 63.375Z" fill="#131B28"/>
<path d="M103.078 62.8811L104.337 58.0664L103.078 62.8821V62.8811Z" fill="#131B28"/>
<path d="M123.659 40.7116L121.879 48.9708L123.659 40.7109V40.7116Z" fill="#131B28"/>
<path d="M129.288 40.2109H124.272C123.994 40.2109 123.718 40.4348 123.658 40.7074L121.878 48.9673L120.097 57.2271C120.038 57.4997 119.763 57.7228 119.484 57.7228H116.441H115.935C112.423 57.7228 112.829 55.2875 113.548 51.9502C113.555 51.9167 113.563 51.8839 113.57 51.8495L113.649 51.4289C113.653 51.4018 113.659 51.3746 113.663 51.3498L113.824 50.4935L113.995 49.5756C114.048 49.299 114.127 48.8944 114.179 48.6402L114.988 44.6747L115.798 40.7092C115.854 40.4357 115.671 40.2111 115.393 40.2111H110.245C109.967 40.2111 109.692 40.4357 109.635 40.7084L108.528 45.974L107.421 51.239C107.42 51.2413 107.42 51.2446 107.42 51.247L107.317 51.7363C106.042 57.5728 106.38 63.1384 113.309 63.3126C113.422 63.3159 113.51 63.3167 113.51 63.3167H124.386C124.664 63.3167 124.94 63.0928 124.998 62.8194L127.343 51.7645L129.689 40.7085C129.746 40.4351 129.566 40.2109 129.288 40.2109Z" fill="#131B28"/>
<path d="M149.293 57.7812C149.572 57.7812 149.754 58.0051 149.698 58.2786L149.211 60.6652" fill="#131B28"/>
<path d="M148.727 63.0523L149.214 60.6641L148.727 63.053C148.727 63.0524 148.727 63.0523 148.727 63.0523Z" fill="#131B28"/>
<path d="M148.113 63.5553C148.114 63.5553 148.115 63.5547 148.116 63.5547C146.64 63.5667 142.205 63.6003 138.871 63.6003C142.928 63.6003 148.113 63.5555 148.113 63.5555L148.113 63.5553Z" fill="#131B28"/>
<path d="M135.879 54.7063C135.874 54.4449 136.171 53.9948 136.45 53.9948L135.824 53.9844C135.541 56.8307 135.879 54.7063 135.879 54.7063Z" fill="#131B28"/>
<path d="M149.294 57.7812C149.573 57.7812 149.755 58.0051 149.699 58.2786L149.212 60.6652L149.133 61.0545" fill="#131B28"/>
<path d="M141.683 63.5938C141.277 63.5954 140.872 63.597 140.473 63.5978C140.872 63.5972 141.277 63.5956 141.683 63.5938Z" fill="#131B28"/>
<path d="M148.119 63.5547C147.037 63.5635 144.367 63.5835 141.703 63.5939C144.365 63.5843 147.037 63.5635 148.119 63.5547Z" fill="#131B28"/>
<path d="M148.727 63.0543L149.135 61.0547L148.727 63.0559C148.727 63.0552 148.727 63.0553 148.727 63.0543Z" fill="#131B28"/>
<path d="M66.2476 54.7675L67.0266 51.3047L66.136 55.263L65.2812 59.295L66.0304 55.7605C66.0882 55.487 66.1862 55.0401 66.2476 54.7675Z" fill="#131B28"/>
<path d="M75.5736 40.1562H70.066C69.7873 40.1562 69.5095 40.3793 69.4473 40.6511L68.925 42.9626L68.4028 45.2748C68.3414 45.5467 68.5188 45.7697 68.7975 45.7697H74.3479C74.6262 45.7697 74.9028 45.5466 74.9626 45.274L75.4673 42.9626L75.9721 40.6528V40.6521C76.0315 40.3795 75.8523 40.1562 75.5736 40.1562Z" fill="#131B28"/>
<path d="M74.3732 47.8444V47.8438L72.7578 55.3376L74.3732 47.8444Z" fill="#131B28"/>
<path d="M58.3734 72.6726C58.3734 72.6726 61.1497 72.7086 62.9146 72.7086C61.5739 72.7086 59.3597 72.6839 58.3711 72.6719C58.3721 72.6719 58.3727 72.6725 58.3737 72.6725L58.3734 72.6726Z" fill="#131B28"/>
<path d="M73.9769 47.3477H68.4258C68.1475 47.3477 67.8693 47.5707 67.8079 47.8434L67.0281 51.3062L66.2491 54.769C66.1877 55.0417 66.0896 55.4886 66.0318 55.762L65.2827 59.2966L64.534 62.8311C64.4758 63.1038 64.3562 63.5443 64.2669 63.8089C64.2669 63.8089 63.2299 66.9031 61.4865 66.8679C61.4124 66.8663 61.3402 66.8656 61.2689 66.8638C60.4241 66.8478 59.7603 66.8358 59.7603 66.8358H59.759C59.4811 66.8317 59.2016 67.0493 59.1367 67.3203L58.561 69.7469L57.9861 72.1727C57.9215 72.4437 58.0961 72.6675 58.3728 72.6724C59.3615 72.6843 61.5757 72.7091 62.9163 72.7091C67.2711 72.7091 69.5667 70.2898 71.0384 63.3276L72.7606 55.3373L74.376 47.8435C74.4346 47.5709 74.2548 47.3478 73.9765 47.3478L73.9769 47.3477Z" fill="#131B28"/>
<path d="M152.829 63.3175C152.551 63.3175 152.37 63.0936 152.429 62.8201L156.605 43.207" fill="#131B28"/>
<path d="M152.49 63.0705C152.456 62.9338 152.476 62.5988 152.535 62.3254L154.517 53.0156L152.429 62.8218C152.37 63.0953 152.551 63.3192 152.829 63.3192H153.336C153.058 63.3192 152.524 63.2073 152.49 63.0705Z" fill="#131B28"/>
<path d="M158.306 63.2077C158.155 63.2693 157.802 63.3196 157.523 63.3196H158.031C158.309 63.3196 158.582 63.0958 158.637 62.8215L158.738 62.3242C158.682 62.5977 158.458 63.1461 158.306 63.2077Z" fill="#131B28"/>
<path d="M159.481 58.6361L160.226 54.9414C160.226 54.9437 160.225 54.947 160.225 54.9486L159.481 58.6361Z" fill="#131B28"/>
<path d="M175.957 44.5195L176.187 45.4726C176.251 45.7452 176.075 45.9667 175.797 45.9675" fill="#131B28"/>
<path d="M160.223 54.9385C160.278 54.6651 160.37 54.2222 160.428 53.9511L161.224 50.2109L160.322 54.4476L160.223 54.9385Z" fill="#131B28"/>
<path d="M156.675 42.8867C156.619 43.1506 156.548 43.484 156.501 43.7046L154.52 53.0151L156.607 43.2082L156.675 42.8867Z" fill="#131B28"/>
<path d="M176.186 45.4728L175.956 44.5198L175.729 43.5436L175.613 43.0495C175.162 41.2929 173.839 40.2791 170.965 40.2791L166.491 40.2743L162.37 40.2695H162.016H157.733C157.455 40.2695 157.18 40.4926 157.122 40.766H157.122L156.917 41.7375L156.675 42.8848L156.608 43.2062L154.52 53.0131L152.538 62.3228C152.479 62.5962 152.459 62.9312 152.493 63.068C152.527 63.2047 153.061 63.3166 153.339 63.3166H157.522C157.801 63.3166 158.154 63.2662 158.305 63.2047C158.457 63.1431 158.681 62.5946 158.737 62.3212L159.48 58.6331L160.225 54.9456C160.225 54.9439 160.225 54.9408 160.226 54.9384L160.325 54.4475L161.227 50.2108L162.023 46.4689C162.082 46.1971 162.357 45.9748 162.635 45.974L175.796 45.9677C176.074 45.967 176.25 45.7454 176.187 45.4728L176.186 45.4728Z" fill="#131B28"/>
<path d="M193.13 36.8581C192.852 36.86 192.396 36.8618 192.117 36.8618H187.905C187.626 36.8618 187.269 37.0505 187.112 37.2811L177.797 50.9658C177.639 51.1968 177.46 51.1624 177.398 50.8906L176.713 47.8756C176.651 47.603 176.372 47.3807 176.094 47.3807H170.105C169.826 47.3807 169.661 47.5998 169.737 47.8684L172.421 57.2948C172.497 57.5634 172.503 58.0048 172.434 58.275L171.264 62.8372C171.195 63.1082 171.366 63.3297 171.645 63.3297H177.564C177.842 63.3297 178.127 63.1082 178.196 62.8372L179.366 58.275C179.435 58.0048 179.629 57.6002 179.796 57.3771L194.92 37.2502C195.087 37.0272 194.996 36.8456 194.718 36.8477L193.13 36.8581Z" fill="#131B28"/>
<path d="M145.551 48.6627L145.551 48.6571C145.516 48.9602 145.237 49.1824 144.959 49.1824H137.366C137.104 49.1824 136.97 49.0033 137.009 48.7827C137.011 48.7763 137.012 48.7707 137.016 48.7651C137.016 48.7651 137.014 48.7657 137.012 48.7674C137.013 48.7586 137.013 48.7506 137.016 48.7418C137.016 48.7418 137.03 48.6882 137.05 48.6123C137.775 46.679 139.253 45.4102 142.029 45.4102C145.154 45.4102 145.764 46.9414 145.551 48.6627ZM143.324 39.875C133.578 39.875 131.269 45.8067 129.973 51.7935C128.677 57.8955 128.789 63.601 138.874 63.601H139.232C139.264 63.6003 139.296 63.6003 139.328 63.6003H139.611H139.714H139.979C140.018 63.5997 140.057 63.5997 140.097 63.5997C140.197 63.5997 140.299 63.599 140.401 63.599H140.472C140.871 63.5984 141.276 63.5964 141.682 63.5949H141.702C144.366 63.5845 147.037 63.5646 148.119 63.5558C148.396 63.5517 148.666 63.3279 148.723 63.0569L149.132 61.0557L149.211 60.6663L149.698 58.2797C149.754 58.0063 149.572 57.7824 149.293 57.7824H140.226C136.621 57.7824 135.55 56.8213 135.944 53.9967H150.437L150.436 53.9983C150.44 53.9983 150.443 53.9967 150.446 53.9967C150.676 53.9926 150.889 53.8336 150.974 53.6217C150.99 53.5809 151.003 53.5385 151.009 53.4946L151.007 53.4962C153.159 45.3569 152.542 39.8754 143.323 39.8754L143.324 39.875Z" fill="#131B28"/>
<path d="M97.2623 48.6317L97.1251 49.1186C97.1251 49.1203 97.1248 49.1203 97.1248 49.1203L96.0305 53.0092L94.9365 56.8974C94.8608 57.166 94.5713 57.3859 94.2923 57.3859H88.4998C84.1062 57.3859 83.0363 53.9401 84.1062 48.8575C85.1759 43.659 87.2733 40.4274 91.5976 40.1002C97.5069 39.6533 98.6892 43.821 97.2623 48.6317ZM101.235 57.0867C101.235 57.0867 103.966 50.4378 104.586 46.5971C105.432 41.4559 102.865 34 92.9493 34C83.0905 34 78.8095 41.1186 77.1759 48.857C75.5426 56.6515 77.6826 63.4874 87.4854 63.4314L95.2188 63.4027L102.447 63.3763C102.725 63.374 103.01 63.1524 103.08 62.8829L104.339 58.0673C104.41 57.797 104.239 57.5748 103.961 57.5732L102.754 57.5659L101.548 57.5587C101.311 57.5571 101.176 57.4036 101.204 57.1998C101.21 57.163 101.218 57.1254 101.234 57.0862L101.235 57.0867Z" fill="#131B28"/>
<path d="M150.04 52.6373C150.04 52.8212 149.891 52.9707 149.708 52.9707C149.524 52.9707 149.375 52.8212 149.375 52.6373C149.375 52.4534 149.524 52.3047 149.708 52.3047C149.891 52.3047 150.04 52.4534 150.04 52.6373Z" fill="#131B28"/>
<path d="M25.9525 43.9913C23.2304 47.9146 23.5693 53.0188 25.6487 57.1874C25.6982 57.2873 25.75 57.3856 25.801 57.484C25.8337 57.5463 25.8644 57.6103 25.8983 57.6719C25.9174 57.7086 25.939 57.7446 25.9589 57.7798C25.9944 57.8462 26.0307 57.9093 26.0673 57.9741C26.1319 58.0884 26.1981 58.2019 26.2659 58.3155C26.3034 58.3778 26.3404 58.4402 26.3791 58.5026C26.4541 58.6241 26.531 58.744 26.6095 58.864C26.6422 58.9151 26.6741 58.9663 26.7076 59.0159C26.816 59.1782 26.9269 59.3397 27.0413 59.4988C27.0441 59.5029 27.0472 59.5076 27.0508 59.5115C27.0688 59.5371 27.0887 59.5619 27.107 59.5875C27.2059 59.7242 27.308 59.8593 27.4112 59.9929C27.4491 60.0416 27.4874 60.0904 27.5257 60.1392C27.6177 60.2551 27.7114 60.3702 27.8067 60.4854C27.8422 60.5285 27.8781 60.5717 27.914 60.6141C28.0419 60.7652 28.1723 60.9155 28.3054 61.0626C28.3079 61.0649 28.311 61.0682 28.3134 61.0706C28.319 61.077 28.3238 61.081 28.3285 61.0874C28.4585 61.2297 28.5917 61.3688 28.7264 61.5079C28.7683 61.5511 28.811 61.5943 28.854 61.6366C28.9585 61.7422 29.0645 61.8461 29.1717 61.9493C29.2152 61.9908 29.2583 62.0332 29.3017 62.0732C29.4448 62.2083 29.5896 62.341 29.7371 62.4706C29.7395 62.4728 29.7414 62.4746 29.7438 62.4762C29.7689 62.4986 29.7949 62.5193 29.8196 62.5409C29.9496 62.6536 30.0819 62.7656 30.2151 62.8759C30.2693 62.9199 30.3243 62.9631 30.3789 63.0071C30.4877 63.0942 30.5978 63.1806 30.7086 63.2653C30.7672 63.3101 30.8258 63.3548 30.8848 63.3996C31.0072 63.49 31.1304 63.5787 31.2548 63.6659C31.3002 63.6987 31.3441 63.7306 31.3895 63.7618C31.4023 63.7706 31.4139 63.7794 31.4266 63.7882C31.5446 63.8698 31.6654 63.9481 31.7858 64.0265C31.8376 64.0608 31.8891 64.0968 31.9413 64.1304C32.1263 64.2479 32.3141 64.3639 32.5038 64.4758C32.5552 64.5054 32.6075 64.5342 32.6593 64.5637C32.7988 64.6445 32.9392 64.7236 33.0815 64.8012C33.1584 64.8428 33.2374 64.882 33.3151 64.9219C33.4156 64.9747 33.5152 65.0283 33.6173 65.0794C33.6404 65.0907 33.6643 65.1018 33.6871 65.113C33.7281 65.133 33.7696 65.1522 33.8107 65.173C33.9689 65.2489 34.1284 65.3233 34.2895 65.3952C34.3238 65.4104 34.3568 65.4256 34.3907 65.4408C34.5753 65.5216 34.7615 65.5991 34.9493 65.6735C34.9943 65.6918 35.0398 65.7095 35.0852 65.727C35.259 65.7942 35.4353 65.8606 35.6123 65.9229C35.6346 65.9309 35.6561 65.9381 35.6784 65.9461C35.8726 66.014 36.0688 66.0772 36.2661 66.1388C36.3131 66.1524 36.3606 66.1675 36.408 66.1811C36.6089 66.2419 36.8075 66.3147 37.0148 66.353C50.1797 68.7604 54.0037 58.42 54.0037 58.42C50.792 62.6158 45.0911 63.7223 39.6896 62.4903C39.485 62.444 39.2865 62.38 39.0868 62.3208C39.0361 62.3056 38.9863 62.2905 38.9365 62.2753C38.7415 62.2153 38.5482 62.1521 38.356 62.0858C38.3297 62.0762 38.303 62.0666 38.2763 62.057C38.1041 61.9962 37.9338 61.9323 37.7644 61.8667C37.7165 61.8475 37.6687 61.8291 37.6209 61.8099C37.4351 61.7364 37.2505 61.6596 37.0683 61.5797C37.0308 61.5637 36.995 61.5469 36.9579 61.5309C36.8012 61.4598 36.6461 61.3878 36.4918 61.3134C36.4472 61.2919 36.4025 61.2711 36.3571 61.2487C36.2359 61.1894 36.1161 61.1262 35.9965 61.0646C35.9165 61.0224 35.8352 60.9824 35.7558 60.9382C35.6098 60.86 35.4665 60.7784 35.3237 60.6952C35.2754 60.668 35.2264 60.6418 35.1778 60.6137C34.988 60.5017 34.8005 60.3858 34.615 60.2682C34.5638 60.2354 34.5138 60.2004 34.4632 60.1667C34.3286 60.0796 34.1947 59.9908 34.0628 59.8998C34.019 59.87 33.9769 59.8382 33.9338 59.8087C33.8064 59.7183 33.6803 59.627 33.5552 59.5343C33.4984 59.492 33.4426 59.4495 33.3874 59.4072C33.2727 59.3191 33.1588 59.2304 33.0458 59.1393C32.9947 59.0986 32.9437 59.0578 32.8935 59.017C32.75 58.8987 32.608 58.7796 32.4681 58.6572C32.4534 58.6445 32.4374 58.6317 32.4214 58.6181C32.27 58.4845 32.1212 58.3478 31.9741 58.2103C31.9315 58.1695 31.89 58.1296 31.8482 58.0888C31.7393 57.9848 31.6321 57.8801 31.5268 57.773C31.4846 57.7306 31.4423 57.689 31.4009 57.6466C31.2669 57.5091 31.1353 57.37 31.0066 57.2285C31.0002 57.2213 30.9934 57.2149 30.987 57.2077C30.8507 57.0582 30.7175 56.9055 30.5872 56.7512C30.5517 56.7088 30.5174 56.6681 30.4823 56.6265C30.385 56.5089 30.2886 56.3898 30.1945 56.2699C30.1592 56.2267 30.1239 56.1824 30.089 56.1379C29.9757 55.9905 29.8649 55.8435 29.7565 55.6942C26.7577 51.5924 25.6803 45.9351 28.0772 41.2891" fill="#0868AC"/>
<path d="M34.4042 40.6871C32.4356 43.5278 32.5424 47.3305 34.0781 50.3348C34.3357 50.8385 34.6251 51.327 34.9488 51.7923C35.2438 52.2161 35.5708 52.7206 35.9622 53.0612C36.1042 53.2179 36.2525 53.3706 36.404 53.5209C36.4422 53.5601 36.4813 53.5977 36.5204 53.636C36.6675 53.7792 36.817 53.9199 36.9716 54.0566C36.978 54.0614 36.9836 54.0678 36.99 54.0726C36.9916 54.0743 36.9932 54.0749 36.9943 54.0767C37.1654 54.227 37.342 54.3717 37.5214 54.514C37.5613 54.5444 37.6007 54.5764 37.641 54.6076C37.8208 54.7459 38.0042 54.8818 38.1924 55.0113C38.1979 55.0154 38.2027 55.0193 38.2083 55.0233C38.2912 55.0809 38.3758 55.1345 38.4599 55.1896C38.5001 55.216 38.5384 55.244 38.5791 55.2688C38.7134 55.3551 38.8494 55.4391 38.9877 55.5198C39.0073 55.5318 39.0264 55.5422 39.0455 55.5534C39.1647 55.6222 39.2855 55.6901 39.4067 55.7557C39.449 55.7796 39.492 55.8004 39.5351 55.8228C39.6188 55.8668 39.7025 55.9116 39.7879 55.954C39.8006 55.9603 39.8138 55.9659 39.8261 55.9716C39.9995 56.0571 40.1745 56.1395 40.3532 56.2178C40.3914 56.2346 40.4309 56.2498 40.4696 56.2658C40.6123 56.3266 40.7566 56.3857 40.9017 56.4417C40.9631 56.4649 41.0253 56.4873 41.0867 56.5097C41.2183 56.5584 41.3502 56.6032 41.4834 56.648C41.5436 56.6672 41.6026 56.6871 41.6628 56.7055C41.8521 56.7647 42.0391 56.8391 42.2365 56.8718C52.401 58.5604 54.7475 50.7131 54.7475 50.7131C52.6322 53.7681 48.5358 55.2256 44.1643 54.0879C43.9702 54.0367 43.7788 53.9808 43.5887 53.9208C43.5304 53.9032 43.4734 53.884 43.4156 53.8648C43.2805 53.8208 43.1461 53.7745 43.013 53.7257C42.952 53.7033 42.891 53.6809 42.8312 53.6577C42.6853 53.6018 42.5409 53.5434 42.3978 53.4826C42.3588 53.4658 42.3193 53.4507 42.281 53.4331C42.1016 53.3547 41.925 53.2724 41.7508 53.186C41.6611 53.142 41.573 53.0957 41.4849 53.0501C41.4338 53.0237 41.3824 52.9973 41.3314 52.9709C41.2182 52.9094 41.1057 52.8454 40.9949 52.7807C40.9686 52.7655 40.9411 52.7511 40.9144 52.7351C40.7768 52.6543 40.6413 52.5712 40.5069 52.4856C40.4655 52.4592 40.4256 52.4305 40.3841 52.4033C40.2956 52.3457 40.2071 52.2874 40.1202 52.2282C39.9328 52.0987 39.7506 51.9627 39.5708 51.8252C39.5294 51.7924 39.4879 51.7605 39.4473 51.7277C37.5338 50.2127 36.0171 48.1427 35.296 45.7953C34.5402 43.3608 34.7032 40.6279 36.0125 38.4102" fill="#0868AC"/>
<path d="M41.5076 38.2164C40.3471 39.929 40.2331 42.0558 41.0384 43.9474C41.8875 45.955 43.6278 47.5301 45.6587 48.2768C45.7424 48.308 45.8261 48.3359 45.911 48.3647C45.9481 48.3759 45.9848 48.3887 46.0223 48.3999C46.1419 48.4374 46.2607 48.4814 46.3843 48.5046C51.9967 49.5919 53.519 45.6167 53.9243 45.0316C52.5907 46.9569 50.3497 47.419 47.6002 46.7498C47.383 46.6967 47.1442 46.6182 46.9349 46.5438C46.6664 46.4479 46.4019 46.3385 46.1449 46.2147C45.6566 45.9796 45.1912 45.694 44.7598 45.3672C42.2992 43.4953 40.7708 39.924 42.3763 37.0156" fill="#0868AC"/>
<path d="M104.722 71.5724L103.104 75.2671H101.318L101.465 71.91L100.15 75.2671H98.4204L98.375 71.5724L98.566 70.6602H99.7907L99.5547 74.3093L100.914 70.6602H102.622L102.498 74.3548L103.846 70.6602H104.913L104.722 71.5724Z" fill="#0868AC"/>
<path d="M107.54 72.6673C107.698 71.9461 107.653 71.811 107.282 71.811H106.72L106.361 73.5012L105.81 75.269H104.766L105.619 71.2592L105.743 70.6732H106.698L106.822 70.9434C106.822 70.9434 107.372 70.6172 107.911 70.6172C109.057 70.6172 108.967 71.4839 108.72 72.6672L107.54 72.6673Z" fill="#0868AC"/>
<path d="M110.931 70.0843C110.471 70.0843 110.179 69.9492 110.291 69.3863C110.414 68.8226 110.774 68.6875 111.223 68.6875C111.673 68.6875 111.976 68.8226 111.852 69.3863C111.74 69.938 111.381 70.0843 110.931 70.0843ZM110.437 75.2661H109.403L109.605 73.464L109.965 71.797L109.246 71.6387L109.448 70.6593H111.414L110.437 75.2661Z" fill="#0868AC"/>
<path d="M114.92 71.6398L113.628 71.7981L113.257 73.5555C113.156 74.04 113.156 74.1751 113.583 74.1751H114.448L114.268 75.0985C114.268 75.0985 113.482 75.3352 113.145 75.3352C111.819 75.3352 111.83 74.6028 112.067 73.5099L112.426 71.7869L111.707 71.6294L111.92 70.6492H112.673L113.1 69.4883H114.123L113.875 70.6492H115.133L114.92 71.6398Z" fill="#0868AC"/>
<path d="M117.605 71.6971C116.998 71.6971 116.683 72.0129 116.56 72.5758L118.29 72.4295C118.369 72.0465 118.29 71.6971 117.605 71.6971ZM116.392 73.4089C116.313 73.9725 116.526 74.1636 117.245 74.1636H119.053L118.874 75.0199C118.874 75.0199 117.784 75.3238 116.976 75.3238C114.965 75.3238 114.942 74.1868 115.201 72.97C115.459 71.7755 115.919 70.5938 117.863 70.5938C119.739 70.5938 119.829 71.7307 119.368 73.4089L116.392 73.4089Z" fill="#0868AC"/>
<path d="M123.49 75.2662H122.457L122.659 73.4641L123.39 70.0396L122.67 69.8709L122.884 68.8906H124.85L123.49 75.2662Z" fill="#0868AC"/>
<path d="M127.222 71.6971C126.615 71.6971 126.301 72.0129 126.177 72.5758L127.907 72.4295C127.985 72.0465 127.907 71.6971 127.222 71.6971ZM126.009 73.4089C125.93 73.9725 126.144 74.1636 126.862 74.1636H128.671L128.491 75.0199C128.491 75.0199 127.401 75.3238 126.592 75.3238C124.581 75.3238 124.559 74.1868 124.818 72.97C125.076 71.7755 125.537 70.5938 127.48 70.5938C129.356 70.5938 129.446 71.7307 128.986 73.4089L126.009 73.4089Z" fill="#0868AC"/>
<path d="M133.725 71.751C133.725 71.751 132.41 71.7622 132.051 71.7622C131.287 71.7622 131.208 71.9981 131.152 72.2459L131.107 72.4714L133.534 72.6521C133.534 72.6521 133.545 73.4292 133.444 73.8682C133.298 74.6005 132.545 75.3433 131.186 75.3433C130.511 75.3433 129.422 75.085 129.422 75.085L129.613 74.1952H131.287C132.028 74.1952 132.13 73.9921 132.175 73.7898L132.231 73.4972L129.849 73.3165C129.849 73.3165 129.76 72.7192 129.883 72.1228C130.063 71.3113 130.804 70.6133 132.163 70.6133C132.837 70.6133 133.927 70.8603 133.927 70.8603L133.725 71.751Z" fill="#0868AC"/>
<path d="M138.24 71.751C138.24 71.751 136.926 71.7622 136.566 71.7622C135.803 71.7622 135.724 71.9981 135.668 72.2459L135.622 72.4714L138.049 72.6521C138.049 72.6521 138.061 73.4292 137.959 73.8682C137.813 74.6005 137.061 75.3433 135.701 75.3433C135.027 75.3433 133.938 75.085 133.938 75.085L134.128 74.1952H135.802C136.544 74.1952 136.645 73.9921 136.69 73.7898L136.746 73.4972L134.364 73.3165C134.364 73.3165 134.275 72.7192 134.398 72.1228C134.578 71.3113 135.319 70.6133 136.679 70.6133C137.352 70.6133 138.442 70.8603 138.442 70.8603L138.24 71.751Z" fill="#0868AC"/>
<path d="M139.655 76.0002H138.757L138.79 75.3238C138.464 75.3022 138.296 75.0656 138.375 74.6706C138.498 74.1077 138.847 73.9727 139.307 73.9727C139.756 73.9727 140.059 74.1078 139.936 74.6706L139.655 76.0002Z" fill="#0868AC"/>
<path d="M145.666 71.7969C144.993 71.7969 144.757 72.2023 144.599 72.9458C144.442 73.6894 144.487 74.1283 145.161 74.1283H146.093L146.61 71.7969H145.666ZM147.206 74.6688L147.082 75.266L146.139 75.2549L146.004 74.9622C146.004 74.9622 145.172 75.322 144.611 75.322C143.173 75.322 143.105 74.1395 143.364 72.9458C143.622 71.7289 144.184 70.58 145.61 70.58C146.128 70.58 146.824 70.8391 146.824 70.8391L147.397 68.8906H148.43L147.206 74.6688Z" fill="#0868AC"/>
<path d="M150.925 71.7508C150.049 71.7508 149.768 72.2457 149.611 72.9669C149.465 73.6993 149.532 74.195 150.397 74.195C151.296 74.195 151.566 73.7105 151.722 72.9669C151.88 72.2681 151.835 71.7508 150.925 71.7508ZM150.161 75.3329C148.308 75.3329 148.161 74.1728 148.409 72.9671C148.667 71.7622 149.319 70.6133 151.173 70.6133C153.014 70.6133 153.183 71.7622 152.924 72.9671C152.666 74.1952 152.015 75.3329 150.161 75.3329Z" fill="#0868AC"/>
<path d="M160.674 75.2651L160.876 73.4853L160.977 72.9785C161.123 72.3029 161.213 71.8071 160.505 71.8071H159.955C159.978 72.1565 159.91 72.5507 159.82 72.9673L159.337 75.2651H158.292L158.494 73.4853L158.595 72.9785C158.742 72.3029 158.831 71.8071 158.124 71.8071H157.674L156.933 75.2651H155.73L156.708 70.6583H157.652L157.798 70.9398C157.798 70.9398 158.438 70.6016 158.955 70.6016C159.348 70.6016 159.64 70.7823 159.741 71.0069C159.966 70.883 160.607 70.6016 161.067 70.6016C162.504 70.6016 162.46 71.7729 162.201 72.9673L161.719 75.2652L160.674 75.2651Z" fill="#0868AC"/>
<path d="M165.448 71.7508C164.572 71.7508 164.291 72.2457 164.134 72.9669C163.988 73.6993 164.056 74.195 164.92 74.195C165.819 74.195 166.089 73.7105 166.246 72.9669C166.403 72.2681 166.358 71.7508 165.448 71.7508ZM164.685 75.3329C162.83 75.3329 162.685 74.1728 162.932 72.9671C163.19 71.7622 163.842 70.6133 165.696 70.6133C167.538 70.6133 167.707 71.7622 167.448 72.9671C167.19 74.1952 166.538 75.3329 164.685 75.3329Z" fill="#0868AC"/>
<path d="M170.572 72.6673C170.729 71.9461 170.684 71.811 170.314 71.811H169.752L169.392 73.5012L168.841 75.269H167.797L168.65 71.2592L168.774 70.6732H169.729L169.852 70.9434C169.852 70.9434 170.403 70.6172 170.943 70.6172C172.088 70.6172 171.998 71.4839 171.751 72.6672L170.572 72.6673Z" fill="#0868AC"/>
<path d="M174.593 71.6971C173.987 71.6971 173.672 72.0129 173.549 72.5758L175.278 72.4295C175.357 72.0465 175.278 71.6971 174.593 71.6971ZM173.38 73.4089C173.301 73.9725 173.514 74.1636 174.233 74.1636H176.042L175.862 75.0199C175.862 75.0199 174.773 75.3238 173.964 75.3238C171.953 75.3238 171.931 74.1868 172.188 72.97C172.447 71.7755 172.908 70.5938 174.851 70.5938C176.727 70.5938 176.817 71.7307 176.356 73.4089L173.38 73.4089Z" fill="#0868AC"/>
<path d="M177.368 75.3348C176.895 75.3348 176.604 75.1997 176.728 74.648C176.839 74.0836 177.188 73.9492 177.66 73.9492C178.098 73.9492 178.401 74.0835 178.289 74.648C178.165 75.1885 177.806 75.3348 177.368 75.3348Z" fill="#0868AC"/>
</g>
<defs>
<clipPath id="clip0_1059_3332">
<rect width="171" height="42" fill="white" transform="translate(24 34)"/>
</clipPath>
</defs>
</svg>
