<svg width="220" height="98" viewBox="0 0 220 98" fill="none" xmlns="http://www.w3.org/2000/svg">
<rect x="0.5" y="0.5" width="219" height="97" rx="4.5" stroke="#D0D0D0"/>
<g clip-path="url(#clip0_1059_3352)">
<path fill-rule="evenodd" clip-rule="evenodd" d="M148.94 51.6931L146.5 49L144.06 51.6931L132 65H136.88L146.5 54.3839L156.122 65H161L148.94 51.6931Z" fill="#E53835"/>
<path fill-rule="evenodd" clip-rule="evenodd" d="M156.054 31L146.5 41.5393L136.949 31H132L144.026 44.2685L146.5 47L148.975 44.2685L161 31H156.054Z" fill="#E53835"/>
<path fill-rule="evenodd" clip-rule="evenodd" d="M99.6802 57.8464C102.18 60.42 105.638 62.1147 109.234 62.1147C113.795 62.1147 116.499 59.8439 116.499 56.4699C116.499 52.9231 113.982 51.7921 110.702 50.3602L105.71 48.1599C102.472 46.7786 98.6725 44.3255 98.6725 39.2174C98.6725 33.9123 103.298 30 109.613 30C113.732 30 117.405 31.7827 119.846 34.3026L117.394 37.042C115.287 35.092 112.771 33.8851 109.613 33.8851C105.715 33.8851 103.134 35.8495 103.134 38.956C103.134 42.3019 106.164 43.5529 108.887 44.7028L113.84 46.8451C117.861 48.5718 121 50.9667 121 56.1304C121 61.6167 116.463 66 109.156 66C104.279 66 100.037 64.0112 97 60.8446L99.6802 57.8464Z" fill="#88898C"/>
<path fill-rule="evenodd" clip-rule="evenodd" d="M76.7199 31.1484C76.7199 31.1484 76.6809 48.1107 76.6809 52.3229C76.6809 57.7037 74.2586 59.7865 74.1807 59.8685C71.4156 62.7526 66.6906 62.9733 63.7378 60.2927C62.9694 59.595 62.2771 58.8439 61.6226 58.1525L59 61.1549C59.5344 61.7271 59.8864 62.1283 60.5152 62.7729C62.7363 65.0507 65.6376 66.2196 68.5203 66.2504C71.4027 66.2809 74.9544 65.1734 77.101 62.9583C77.1191 62.9395 77.1372 62.9209 77.1553 62.9026C77.2561 62.7992 80.9549 59.2716 80.9732 53.0749V31.1484H76.7199Z" fill="#88898C"/>
</g>
<defs>
<clipPath id="clip0_1059_3352">
<rect width="102" height="37" fill="white" transform="translate(59 30)"/>
</clipPath>
</defs>
</svg>
