<svg width="15" height="11" viewBox="0 0 15 11" fill="none" xmlns="http://www.w3.org/2000/svg">
<path d="M3.15169 1.25C2.55435 1.474 2.25569 1.91267 2.25569 2.566C2.25569 3.21 2.78302 3.83533 3.83769 4.442C4.72435 4.946 5.36369 5.40333 5.75569 5.814C6.15702 6.22467 6.35769 6.66333 6.35769 7.13C6.35769 8.166 6.02635 8.95 5.36369 9.482C4.71035 10.014 3.79102 10.28 2.60569 10.28C1.15902 10.28 0.295688 9.95333 0.0156875 9.3C0.211688 8.94533 0.370354 8.48333 0.491688 7.914L0.561688 7.634C0.795021 7.55 1.04702 7.508 1.31769 7.508C1.24302 7.71333 1.20569 7.95133 1.20569 8.222C1.20569 8.67933 1.32702 8.992 1.56969 9.16H4.36969C4.92035 8.81467 5.19569 8.31067 5.19569 7.648C5.19569 7.21867 5.02769 6.822 4.69169 6.458C4.35569 6.08467 3.83302 5.69267 3.12369 5.282C2.42369 4.87133 1.92435 4.51667 1.62569 4.218C1.32702 3.91933 1.17769 3.54133 1.17769 3.084C1.17769 2.14133 1.49502 1.43667 2.12969 0.969999C2.76435 0.503333 3.59969 0.269999 4.63569 0.269999C5.12102 0.269999 5.55035 0.353999 5.92369 0.521999C6.30635 0.680666 6.53502 0.876666 6.60969 1.11C6.41369 1.46467 6.25035 1.92667 6.11969 2.496L6.06369 2.776C5.83035 2.86 5.57835 2.902 5.30769 2.902C5.38235 2.69667 5.41969 2.45867 5.41969 2.188C5.41969 1.73067 5.29835 1.418 5.05569 1.25H3.15169ZM11.9462 0.339999C13.6075 0.339999 14.4382 0.993333 14.4382 2.3C14.4382 3.448 13.9295 4.274 12.9122 4.778C13.5189 4.918 13.9762 5.17 14.2842 5.534C14.5922 5.88867 14.7462 6.30867 14.7462 6.794C14.7462 7.93267 14.3729 8.77733 13.6262 9.328C12.8795 9.86933 11.9042 10.14 10.7002 10.14C10.3922 10.14 10.0282 10.1167 9.6082 10.07C9.19754 10.0233 8.91754 10 8.7682 10L7.4382 10.098C7.4382 9.88333 7.48487 9.68267 7.5782 9.496C7.95154 9.384 8.26887 9.216 8.5302 8.992C8.77287 6.93867 8.98287 4.35333 9.1602 1.236L8.1102 0.983999C8.1102 0.769333 8.15687 0.568666 8.2502 0.381999C8.84754 0.447333 9.31887 0.48 9.6642 0.48C10.0095 0.48 10.4342 0.456666 10.9382 0.409999C11.4422 0.363333 11.7782 0.339999 11.9462 0.339999ZM11.8902 5.296H9.9582C9.92087 5.73467 9.8462 7.02267 9.7342 9.16H12.4502C13.2622 8.852 13.6682 8.20333 13.6682 7.214C13.6682 6.63533 13.4815 6.17333 13.1082 5.828C12.7442 5.47333 12.3382 5.296 11.8902 5.296ZM13.4162 2.706C13.4162 2.36067 13.3369 2.048 13.1782 1.768C13.0195 1.488 12.7955 1.31533 12.5062 1.25H10.3502C10.2009 2.454 10.0842 3.588 10.0002 4.652H12.0302C12.9542 4.24133 13.4162 3.59267 13.4162 2.706Z" fill="#92AB33"/>
</svg>
